{
    "asset" : {
        "generator" : "Khronos glTF Blender I/O v3.3.27",
        "version" : "2.0"
    },
    "scene" : 0,
    "scenes" : [
        {
            "name" : "Scene",
            "nodes" : [
                0,
                1
            ]
        }
    ],
    "nodes" : [
        {
            "mesh" : 0,
            "name" : "Circle"
        },
        {
            "mesh" : 1,
            "name" : "Cube",
            "scale" : [
                0.08504508435726166,
                0.08504508435726166,
                0.08504508435726166
            ],
            "translation" : [
                0,
                3.7785842418670654,
                0
            ]
        }
    ],
    "meshes" : [
        {
            "name" : "Circle",
            "primitives" : [
                {
                    "attributes" : {
                        "POSITION" : 0,
                        "NORMAL" : 1,
                        "TEXCOORD_0" : 2
                    },
                    "indices" : 3
                }
            ]
        },
        {
            "name" : "Cube.002",
            "primitives" : [
                {
                    "attributes" : {
                        "POSITION" : 4,
                        "NORMAL" : 5,
                        "TEXCOORD_0" : 6
                    },
                    "indices" : 7
                }
            ]
        }
    ],
    "accessors" : [
        {
            "bufferView" : 0,
            "componentType" : 5126,
            "count" : 2847,
            "max" : [
                0.920066237449646,
                4.2195281982421875,
                0.920066237449646
            ],
            "min" : [
                -0.920066237449646,
                0,
                -0.920066237449646
            ],
            "type" : "VEC3"
        },
        {
            "bufferView" : 1,
            "componentType" : 5126,
            "count" : 2847,
            "type" : "VEC3"
        },
        {
            "bufferView" : 2,
            "componentType" : 5126,
            "count" : 2847,
            "type" : "VEC2"
        },
        {
            "bufferView" : 3,
            "componentType" : 5123,
            "count" : 4470,
            "type" : "SCALAR"
        },
        {
            "bufferView" : 4,
            "componentType" : 5126,
            "count" : 169,
            "max" : [
                2.9962453842163086,
                5.1848273277282715,
                0.6069777011871338
            ],
            "min" : [
                -2.9962453842163086,
                -1.0154895782470703,
                -0.6069777011871338
            ],
            "type" : "VEC3"
        },
        {
            "bufferView" : 5,
            "componentType" : 5126,
            "count" : 169,
            "type" : "VEC3"
        },
        {
            "bufferView" : 6,
            "componentType" : 5126,
            "count" : 169,
            "type" : "VEC2"
        },
        {
            "bufferView" : 7,
            "componentType" : 5123,
            "count" : 348,
            "type" : "SCALAR"
        }
    ],
    "bufferViews" : [
        {
            "buffer" : 0,
            "byteLength" : 34164,
            "byteOffset" : 0,
            "target" : 34962
        },
        {
            "buffer" : 0,
            "byteLength" : 34164,
            "byteOffset" : 34164,
            "target" : 34962
        },
        {
            "buffer" : 0,
            "byteLength" : 22776,
            "byteOffset" : 68328,
            "target" : 34962
        },
        {
            "buffer" : 0,
            "byteLength" : 8940,
            "byteOffset" : 91104,
            "target" : 34963
        },
        {
            "buffer" : 0,
            "byteLength" : 2028,
            "byteOffset" : 100044,
            "target" : 34962
        },
        {
            "buffer" : 0,
            "byteLength" : 2028,
            "byteOffset" : 102072,
            "target" : 34962
        },
        {
            "buffer" : 0,
            "byteLength" : 1352,
            "byteOffset" : 104100,
            "target" : 34962
        },
        {
            "buffer" : 0,
            "byteLength" : 696,
            "byteOffset" : 105452,
            "target" : 34963
        }
    ],
    "buffers" : [
        {
            "byteLength" : 106148,
            "uri" : "data:application/octet-stream;base64,"
        }
    ]
}
